<svg width="105" height="28" viewBox="0 0 105 28" fill="none" xmlns="http://www.w3.org/2000/svg">
<g clip-path="url(#clip0_0_694)">
<path d="M32.503 15.2966H40.9096C40.9096 9.27367 37.2889 6.01123 32.503 6.01123V15.2966ZM41.3674 20.7759C40.1189 21.4451 38.1213 22.0306 36.2901 22.0306C32.503 22.0306 28.799 20.2739 28.799 14.0837C28.799 11.4068 29.9643 8.39532 31.7122 6.01123C26.9263 6.26219 21.849 10.6539 21.849 17.2206C21.849 24.1638 26.7598 27.6772 31.7955 27.6772C35.874 27.6772 39.8276 25.3349 41.3674 20.7759ZM52.063 14.3765H59.8038V6.01123C55.1843 6.01123 52.063 9.10637 52.063 14.3765ZM44.0725 27.3426H51.1891V6.4295H44.0725V27.3426ZM70.5826 12.6616C74.0785 11.7832 76.3258 12.7871 76.3258 16.3841V27.3426H83.4423V12.7452C83.4423 8.18619 80.8205 5.88576 77.6992 5.88576C74.7444 5.88576 71.6647 8.14436 70.5826 12.6616ZM62.8002 27.3426H69.9168V6.4295H62.8002V27.3426ZM97.8419 18.1408C97.8419 11.4486 92.4316 10.6539 87.3543 12.4943L87.3127 12.4525C89.1855 8.18619 92.7646 5.88576 96.5101 5.88576C100.88 5.88576 105 9.02271 105 15.2548V27.3426H97.8835V18.1408H97.8419ZM8.15696 27.3426H0V0.155579H8.15696V27.3426ZM19.2687 16.0077V27.2589H9.28062L19.2687 16.0077ZM93.2224 15.9658C95.761 15.9658 97.6338 17.0533 97.6338 17.0533L88.8109 27.8445C88.8109 27.8445 86.3555 26.1296 86.3555 22.5744C86.3555 17.8899 90.1843 15.9658 93.2224 15.9658Z" fill="#29004D"/>
</g>
<defs>
<clipPath id="clip0_0_694">
<rect width="105" height="28" fill="white"/>
</clipPath>
</defs>
</svg>
